# xmcd
#
# Track frame offsets: 
#        150
#        25595
#        54042
#        76861
#        98132
#        131324
#        151121
#        161759
#        179558
#        205621
#        237650
#        257656
#
# Disc length: 3808 seconds
#
# Revision: 0
# Processed by: cddbd v1.5.2PL0 Copyright (c) Steve Scherf et al.
# Submitted via: ExactAudioCopy v1.3
#
DISCID=890ede0c
DTITLE=Dave Steffen Band - Flying Potion
DYEAR=1997
DGENRE=Blues Rock
TTITLE0=Way Of The Witch
TTITLE1=You're The Star
TTITLE2=Flying Potion
TTITLE3=Heading To The Top
TTITLE4=Doin' It To Me Right
TTITLE5=Falling For You
TTITLE6=Rambunctious
TTITLE7=Sweet Valentine
TTITLE8=Let's Go
TTITLE9=Help Me
TTITLE10=Don't Stop
TTITLE11=Down The Road
EXTD=
EXTT0=
EXTT1=
EXTT2=
EXTT3=
EXTT4=
EXTT5=
EXTT6=
EXTT7=
EXTT8=
EXTT9=
EXTT10=
EXTT11=
PLAYORDER=
